%
M48
M72
T01C0.0197
T02C0.0315
T03C0.0354
T04C0.0400
T05C0.0413
T06C0.0433
T07C0.0472
T08C0.0590
T09C0.1102
T10C0.1260
%
T01
X8090Y12680
X10590Y8680
X12090Y8680
X13890Y7180
X14340Y7180
X14590Y6180
X12840Y5180
X11840Y5680
X13840Y4180
X13090Y3680
X13840Y3180
X11590Y3180
X8590Y6180
X14840Y8180
X15340Y8180
X15840Y7930
X15590Y8680
X14840Y9180
X15340Y9680
X15840Y9430
X16590Y9680
X16840Y8930
X16840Y8430
X18340Y8680
X18090Y9680
X17590Y10180
X17590Y10680
X18340Y10680
X17090Y12430
X14090Y11180
X12840Y11430
X12590Y13180
X13340Y18180
X12090Y20430
X12840Y20430
X18090Y20430
X21840Y17930
X25340Y20680
X26590Y20180
X27840Y17430
X30340Y17680
X31090Y18180
X33090Y5680
X34090Y6180
X34340Y6930
X35590Y7180
X39840Y4930
X39840Y10930
X37590Y11180
X30340Y12930
X28340Y11930
X29090Y10430
X29840Y9430
X27090Y7430
X25840Y6680
X24840Y5930
X25090Y5430
X24090Y4930
X22090Y6430
X22340Y7430
X22090Y8180
X22090Y9430
X22090Y9930
X22090Y10680
X21240Y10580
X19840Y12430
X20590Y8180
X20440Y7030
X18590Y6430
X18090Y5930
X17840Y6680
X18340Y7430
X19590Y5180
X20590Y5180
X26840Y4930
X27590Y4930
X28340Y5180
X29340Y5180
X28340Y6430
X30840Y3580
X26840Y3180
T02
X9590Y19380
X27040Y11930
T03
X8590Y18480
X9590Y18380
X10590Y18480
X11590Y18380
X11590Y19380
X10590Y19480
X8590Y19480
X12263Y16760
X11279Y16660
X11279Y15660
X12279Y15760
X13279Y15660
X14279Y15760
X14279Y16760
X13279Y16660
X15279Y16660
X16279Y16760
X17279Y16660
X18279Y16760
X19279Y16660
X19279Y15660
X18279Y15760
X17279Y15660
X16279Y15760
X15279Y15660
X20279Y15760
X21279Y15660
X22279Y15760
X23279Y15660
X23279Y16660
X22279Y16760
X21279Y16660
X20279Y16760
X24279Y16760
X25279Y16660
X26279Y16760
X27279Y16660
X28279Y16760
X28279Y15760
X27279Y15660
X26279Y15760
X25279Y15660
X24279Y15760
X26140Y12930
X27140Y12930
X26040Y11930
X26140Y10930
X27140Y10930
X27040Y9930
X26040Y9930
X29279Y15660
X30279Y15760
X30279Y16760
X29279Y16660
X8057Y10910
X8057Y13587
X33954Y4103
X36631Y4103
T04
X10060Y9570
X10060Y7790
X12620Y7790
X12620Y9570
X19200Y9960
X20980Y9960
X23200Y9960
X24980Y9960
X24980Y7400
X23200Y7400
X20980Y7400
X19200Y7400
X29910Y3657
X30195Y4719
X31490Y5180
X32490Y5180
X32590Y4180
X31590Y4180
X14700Y20920
X16480Y20920
X32590Y6180
X31590Y6180
T05
X9314Y5140
X9314Y3230
T06
X12590Y18430
X12590Y19430
X26090Y8930
X27090Y8930
T07
X8121Y5258
X8121Y3112
X18590Y18880
X20090Y18980
X21590Y18880
X23090Y18980
X24590Y18880
X26090Y18980
X38390Y5930
X38290Y7430
X38390Y8930
X38290Y10430
X38390Y11930
X38290Y13430
T08
X14210Y19940
X16970Y19940
T09
X15840Y12930
X38840Y3680
T10
X9377Y16308
X32212Y16308
M30
