G75*
%MOIN*%
%OFA0B0*%
%FSLAX24Y24*%
%IPPOS*%
%LPD*%
%AMOC8*
5,1,8,0,0,1.08239X$1,22.5*
%
%ADD10C,0.0160*%
%ADD11C,0.0080*%
%ADD12C,0.0000*%
%ADD13C,0.0050*%
%ADD14C,0.0020*%
%ADD15C,0.0040*%
%ADD16C,0.0320*%
%ADD17R,0.0300X0.0180*%
%ADD18R,0.0180X0.0300*%
%ADD19C,0.0060*%
D10*
X007340Y002680D02*
X007340Y013930D01*
X007342Y013960D01*
X007347Y013990D01*
X007356Y014019D01*
X007369Y014046D01*
X007384Y014072D01*
X007403Y014096D01*
X007424Y014117D01*
X007448Y014136D01*
X007474Y014151D01*
X007501Y014164D01*
X007530Y014173D01*
X007560Y014178D01*
X007590Y014180D01*
X007990Y014180D01*
X008007Y014182D01*
X008024Y014186D01*
X008040Y014193D01*
X008054Y014203D01*
X008067Y014216D01*
X008077Y014230D01*
X008084Y014246D01*
X008088Y014263D01*
X008090Y014280D01*
X008090Y015028D01*
X008036Y015030D01*
X007983Y015036D01*
X007931Y015045D01*
X007879Y015058D01*
X007828Y015075D01*
X007778Y015096D01*
X007731Y015120D01*
X007685Y015147D01*
X007641Y015178D01*
X007599Y015211D01*
X007560Y015248D01*
X007523Y015287D01*
X007490Y015329D01*
X007459Y015373D01*
X007432Y015419D01*
X007408Y015466D01*
X007387Y015516D01*
X007370Y015567D01*
X007357Y015619D01*
X007348Y015671D01*
X007342Y015724D01*
X007340Y015778D01*
X007340Y020893D01*
X007342Y020947D01*
X007347Y021000D01*
X007356Y021053D01*
X007369Y021105D01*
X007385Y021157D01*
X007405Y021207D01*
X007428Y021255D01*
X007455Y021302D01*
X007484Y021347D01*
X007517Y021390D01*
X007552Y021430D01*
X007590Y021468D01*
X007630Y021503D01*
X007673Y021536D01*
X007718Y021565D01*
X007765Y021592D01*
X007813Y021615D01*
X007863Y021635D01*
X007915Y021651D01*
X007967Y021664D01*
X008020Y021673D01*
X008073Y021678D01*
X008127Y021680D01*
X031302Y021680D01*
X031356Y021678D01*
X031409Y021673D01*
X031462Y021664D01*
X031514Y021651D01*
X031566Y021635D01*
X031616Y021615D01*
X031664Y021592D01*
X031711Y021565D01*
X031756Y021536D01*
X031799Y021503D01*
X031839Y021468D01*
X031877Y021430D01*
X031912Y021390D01*
X031945Y021347D01*
X031974Y021302D01*
X032001Y021255D01*
X032024Y021207D01*
X032044Y021157D01*
X032060Y021105D01*
X032073Y021053D01*
X032082Y021000D01*
X032087Y020947D01*
X032089Y020893D01*
X032090Y020893D02*
X032090Y017930D01*
X032092Y017900D01*
X032097Y017870D01*
X032106Y017841D01*
X032119Y017814D01*
X032134Y017788D01*
X032153Y017764D01*
X032174Y017743D01*
X032198Y017724D01*
X032224Y017709D01*
X032251Y017696D01*
X032280Y017687D01*
X032310Y017682D01*
X032340Y017680D01*
X032802Y017680D01*
X032856Y017678D01*
X032909Y017673D01*
X032962Y017664D01*
X033014Y017651D01*
X033066Y017635D01*
X033116Y017615D01*
X033164Y017592D01*
X033211Y017565D01*
X033256Y017536D01*
X033299Y017503D01*
X033339Y017468D01*
X033377Y017430D01*
X033412Y017390D01*
X033445Y017347D01*
X033474Y017302D01*
X033501Y017255D01*
X033524Y017207D01*
X033544Y017157D01*
X033560Y017105D01*
X033573Y017053D01*
X033582Y017000D01*
X033587Y016947D01*
X033589Y016893D01*
X033590Y016893D02*
X033590Y015688D01*
X033589Y015688D02*
X033587Y015639D01*
X033582Y015590D01*
X033572Y015541D01*
X033560Y015494D01*
X033543Y015447D01*
X033524Y015402D01*
X033501Y015359D01*
X033474Y015317D01*
X033445Y015277D01*
X033413Y015240D01*
X033378Y015205D01*
X033341Y015173D01*
X033301Y015144D01*
X033260Y015117D01*
X033216Y015094D01*
X033171Y015075D01*
X033124Y015058D01*
X033077Y015046D01*
X033028Y015036D01*
X032979Y015031D01*
X032930Y015029D01*
X032930Y015028D02*
X032930Y014341D01*
X032932Y014324D01*
X032936Y014307D01*
X032943Y014291D01*
X032953Y014277D01*
X032966Y014264D01*
X032980Y014254D01*
X032996Y014247D01*
X033013Y014243D01*
X033030Y014241D01*
X040017Y014241D01*
X040071Y014239D01*
X040124Y014234D01*
X040177Y014225D01*
X040229Y014212D01*
X040281Y014196D01*
X040331Y014176D01*
X040379Y014153D01*
X040426Y014126D01*
X040471Y014097D01*
X040514Y014064D01*
X040554Y014029D01*
X040592Y013991D01*
X040627Y013951D01*
X040660Y013908D01*
X040689Y013863D01*
X040716Y013816D01*
X040739Y013768D01*
X040759Y013718D01*
X040775Y013666D01*
X040788Y013614D01*
X040797Y013561D01*
X040802Y013508D01*
X040804Y013454D01*
X040804Y003217D01*
X040802Y003163D01*
X040797Y003110D01*
X040788Y003057D01*
X040775Y003005D01*
X040759Y002953D01*
X040739Y002903D01*
X040716Y002855D01*
X040689Y002808D01*
X040660Y002763D01*
X040627Y002720D01*
X040592Y002680D01*
X040554Y002642D01*
X040514Y002607D01*
X040471Y002574D01*
X040426Y002545D01*
X040379Y002518D01*
X040331Y002495D01*
X040281Y002475D01*
X040229Y002459D01*
X040177Y002446D01*
X040124Y002437D01*
X040071Y002432D01*
X040017Y002430D01*
X037340Y002430D01*
X037296Y002432D01*
X037253Y002438D01*
X037211Y002447D01*
X037169Y002460D01*
X037129Y002477D01*
X037090Y002497D01*
X037053Y002520D01*
X037019Y002547D01*
X036986Y002576D01*
X036957Y002609D01*
X036930Y002643D01*
X036907Y002680D01*
X036887Y002719D01*
X036870Y002759D01*
X036857Y002801D01*
X036848Y002843D01*
X036842Y002886D01*
X036840Y002930D01*
X036838Y002974D01*
X036832Y003017D01*
X036823Y003059D01*
X036810Y003101D01*
X036793Y003141D01*
X036773Y003180D01*
X036750Y003217D01*
X036723Y003251D01*
X036694Y003284D01*
X036661Y003313D01*
X036627Y003340D01*
X036590Y003363D01*
X036551Y003383D01*
X036511Y003400D01*
X036469Y003413D01*
X036427Y003422D01*
X036384Y003428D01*
X036340Y003430D01*
X034340Y003430D01*
X034296Y003428D01*
X034253Y003422D01*
X034211Y003413D01*
X034169Y003400D01*
X034129Y003383D01*
X034090Y003363D01*
X034053Y003340D01*
X034019Y003313D01*
X033986Y003284D01*
X033957Y003251D01*
X033930Y003217D01*
X033907Y003180D01*
X033887Y003141D01*
X033870Y003101D01*
X033857Y003059D01*
X033848Y003017D01*
X033842Y002974D01*
X033840Y002930D01*
X033838Y002886D01*
X033832Y002843D01*
X033823Y002801D01*
X033810Y002759D01*
X033793Y002719D01*
X033773Y002680D01*
X033750Y002643D01*
X033723Y002609D01*
X033694Y002576D01*
X033661Y002547D01*
X033627Y002520D01*
X033590Y002497D01*
X033551Y002477D01*
X033511Y002460D01*
X033469Y002447D01*
X033427Y002438D01*
X033384Y002432D01*
X033340Y002430D01*
X007590Y002430D01*
X007560Y002432D01*
X007530Y002437D01*
X007501Y002446D01*
X007474Y002459D01*
X007448Y002474D01*
X007424Y002493D01*
X007403Y002514D01*
X007384Y002538D01*
X007369Y002564D01*
X007356Y002591D01*
X007347Y002620D01*
X007342Y002650D01*
X007340Y002680D01*
X009590Y017180D02*
X009090Y017430D01*
X009590Y017680D01*
X009090Y017430D02*
X011590Y017430D01*
X024840Y011930D02*
X025090Y012430D01*
X025340Y011930D01*
X025090Y012430D02*
X025090Y009930D01*
X024793Y005430D02*
X024795Y005520D01*
X024801Y005610D01*
X024811Y005699D01*
X024825Y005788D01*
X024842Y005876D01*
X024864Y005963D01*
X024889Y006050D01*
X024918Y006135D01*
X024951Y006219D01*
X024987Y006301D01*
X025027Y006381D01*
X025071Y006460D01*
X025118Y006537D01*
X025168Y006611D01*
X025222Y006684D01*
X025278Y006753D01*
X025338Y006821D01*
X025401Y006885D01*
X025466Y006947D01*
X025534Y007006D01*
X025604Y007062D01*
X025677Y007115D01*
X025752Y007164D01*
X025830Y007210D01*
X025909Y007253D01*
X025990Y007292D01*
X026072Y007328D01*
X026156Y007359D01*
X026242Y007388D01*
X026328Y007412D01*
X026416Y007433D01*
X026504Y007449D01*
X026593Y007462D01*
X026683Y007471D01*
X026773Y007476D01*
X026862Y007477D01*
X026952Y007474D01*
X027042Y007467D01*
X027131Y007456D01*
X027220Y007441D01*
X027308Y007423D01*
X027395Y007400D01*
X027481Y007374D01*
X027566Y007344D01*
X027649Y007310D01*
X027731Y007273D01*
X027811Y007232D01*
X027889Y007188D01*
X027966Y007140D01*
X028040Y007089D01*
X028111Y007034D01*
X028180Y006977D01*
X028247Y006917D01*
X028311Y006853D01*
X028372Y006787D01*
X028430Y006719D01*
X028485Y006648D01*
X028537Y006574D01*
X028586Y006499D01*
X028631Y006421D01*
X028673Y006341D01*
X028711Y006260D01*
X028746Y006177D01*
X028777Y006092D01*
X028804Y006007D01*
X028828Y005920D01*
X028847Y005832D01*
X028863Y005744D01*
X028875Y005654D01*
X028883Y005565D01*
X028887Y005475D01*
X028887Y005385D01*
X028883Y005295D01*
X028875Y005206D01*
X028863Y005116D01*
X028847Y005028D01*
X028828Y004940D01*
X028804Y004853D01*
X028777Y004768D01*
X028746Y004683D01*
X028711Y004600D01*
X028673Y004519D01*
X028631Y004439D01*
X028586Y004361D01*
X028537Y004286D01*
X028485Y004212D01*
X028430Y004141D01*
X028372Y004073D01*
X028311Y004007D01*
X028247Y003943D01*
X028180Y003883D01*
X028111Y003826D01*
X028040Y003771D01*
X027966Y003720D01*
X027889Y003672D01*
X027811Y003628D01*
X027731Y003587D01*
X027649Y003550D01*
X027566Y003516D01*
X027481Y003486D01*
X027395Y003460D01*
X027308Y003437D01*
X027220Y003419D01*
X027131Y003404D01*
X027042Y003393D01*
X026952Y003386D01*
X026862Y003383D01*
X026773Y003384D01*
X026683Y003389D01*
X026593Y003398D01*
X026504Y003411D01*
X026416Y003427D01*
X026328Y003448D01*
X026242Y003472D01*
X026156Y003501D01*
X026072Y003532D01*
X025990Y003568D01*
X025909Y003607D01*
X025830Y003650D01*
X025752Y003696D01*
X025677Y003745D01*
X025604Y003798D01*
X025534Y003854D01*
X025466Y003913D01*
X025401Y003975D01*
X025338Y004039D01*
X025278Y004107D01*
X025222Y004176D01*
X025168Y004249D01*
X025118Y004323D01*
X025071Y004400D01*
X025027Y004479D01*
X024987Y004559D01*
X024951Y004641D01*
X024918Y004725D01*
X024889Y004810D01*
X024864Y004897D01*
X024842Y004984D01*
X024825Y005072D01*
X024811Y005161D01*
X024801Y005250D01*
X024795Y005340D01*
X024793Y005430D01*
D11*
X023562Y005007D02*
X023562Y004574D01*
X023562Y005007D02*
X023405Y005164D01*
X022775Y005164D01*
X022617Y005007D01*
X022617Y004574D01*
X022617Y003786D02*
X022617Y003196D01*
X023562Y003196D01*
X023562Y003786D01*
X026372Y005423D02*
X026426Y005370D01*
X026586Y005370D01*
X026586Y005690D01*
X026426Y005690D01*
X026372Y005637D01*
X026372Y005584D01*
X026426Y005530D01*
X026586Y005530D01*
X026426Y005530D02*
X026372Y005477D01*
X026372Y005423D01*
X026724Y005370D02*
X026831Y005370D01*
X026778Y005370D02*
X026778Y005690D01*
X026831Y005690D02*
X026724Y005690D01*
X026986Y005690D02*
X026986Y005477D01*
X027093Y005370D01*
X027200Y005477D01*
X027200Y005690D01*
X028840Y006680D02*
X029240Y005980D01*
X029288Y005904D02*
X029288Y006219D01*
X029288Y005904D02*
X029525Y005904D01*
X030155Y005904D02*
X030391Y005904D01*
X030391Y006219D01*
X030958Y006430D02*
X030958Y005930D01*
X031090Y005930D02*
X031340Y005680D01*
X032840Y005680D01*
X033090Y005430D01*
X033090Y004930D01*
X032840Y004680D01*
X031340Y004680D01*
X031090Y004430D01*
X031090Y003930D01*
X031340Y003680D01*
X032840Y003680D01*
X033090Y003930D01*
X033090Y004430D01*
X032840Y004680D01*
X032840Y005680D02*
X033090Y005930D01*
X033090Y006430D01*
X032840Y006680D01*
X031340Y006680D01*
X031090Y006430D01*
X031090Y005930D01*
X031340Y005680D02*
X031090Y005430D01*
X031090Y004930D01*
X031340Y004680D01*
X030766Y004918D02*
X030688Y005053D01*
X030311Y005154D01*
X029935Y005255D01*
X029800Y005177D01*
X030285Y005057D02*
X030311Y005154D01*
X030091Y004333D02*
X030014Y004043D01*
X029820Y003319D02*
X029794Y003222D01*
X030170Y003121D01*
X030305Y003199D01*
X029794Y003222D02*
X029417Y003323D01*
X029339Y003458D01*
X019312Y003196D02*
X018367Y003196D01*
X018367Y003786D01*
X018367Y004574D02*
X018367Y005007D01*
X018525Y005164D01*
X019155Y005164D01*
X019312Y005007D01*
X019312Y004574D01*
X019312Y003786D02*
X019312Y003196D01*
X017826Y005678D02*
X017826Y006190D01*
X016350Y006190D02*
X016350Y005678D01*
X014400Y004349D02*
X014400Y004011D01*
X013945Y004499D02*
X013734Y004499D01*
X013280Y004349D02*
X013280Y004011D01*
X010910Y003274D02*
X010733Y003274D01*
X010910Y003274D02*
X010910Y005086D01*
X010733Y005086D01*
X009946Y005086D02*
X009769Y005086D01*
X009769Y003274D01*
X009946Y003274D01*
X009946Y004574D02*
X010733Y004574D01*
X010540Y011680D02*
X010540Y012180D01*
X011140Y012180D02*
X011140Y011680D01*
X008840Y017680D02*
X008340Y017680D01*
X025340Y013180D02*
X025340Y012680D01*
X030696Y017235D02*
X030696Y017786D01*
X030814Y018062D02*
X031090Y018062D01*
X030853Y018298D01*
X031326Y018298D01*
X031090Y018062D01*
X031365Y018062D01*
X031483Y017786D02*
X031483Y017235D01*
X030696Y017235D01*
X029865Y017879D02*
X029550Y017879D01*
X029865Y017879D02*
X029865Y018115D01*
X029865Y018745D02*
X029865Y018981D01*
X029550Y018981D01*
X029550Y019879D02*
X029865Y019879D01*
X029865Y020115D01*
X029865Y020745D02*
X029865Y020981D01*
X029550Y020981D01*
X030696Y020824D02*
X030696Y021375D01*
X031483Y021375D01*
X031483Y020824D01*
X031326Y020548D02*
X031090Y020312D01*
X030853Y020548D01*
X031326Y020548D01*
X031365Y020312D02*
X031090Y020312D01*
X030814Y020312D01*
X030696Y020036D02*
X030696Y019485D01*
X031483Y019485D01*
X031483Y020036D01*
X031483Y019125D02*
X030696Y019125D01*
X030696Y018574D01*
X031483Y018574D02*
X031483Y019125D01*
D12*
X031582Y016308D02*
X031584Y016358D01*
X031590Y016408D01*
X031600Y016457D01*
X031614Y016505D01*
X031631Y016552D01*
X031652Y016597D01*
X031677Y016641D01*
X031705Y016682D01*
X031737Y016721D01*
X031771Y016758D01*
X031808Y016792D01*
X031848Y016822D01*
X031890Y016849D01*
X031934Y016873D01*
X031980Y016894D01*
X032027Y016910D01*
X032075Y016923D01*
X032125Y016932D01*
X032174Y016937D01*
X032225Y016938D01*
X032275Y016935D01*
X032324Y016928D01*
X032373Y016917D01*
X032421Y016902D01*
X032467Y016884D01*
X032512Y016862D01*
X032555Y016836D01*
X032596Y016807D01*
X032635Y016775D01*
X032671Y016740D01*
X032703Y016702D01*
X032733Y016662D01*
X032760Y016619D01*
X032783Y016575D01*
X032802Y016529D01*
X032818Y016481D01*
X032830Y016432D01*
X032838Y016383D01*
X032842Y016333D01*
X032842Y016283D01*
X032838Y016233D01*
X032830Y016184D01*
X032818Y016135D01*
X032802Y016087D01*
X032783Y016041D01*
X032760Y015997D01*
X032733Y015954D01*
X032703Y015914D01*
X032671Y015876D01*
X032635Y015841D01*
X032596Y015809D01*
X032555Y015780D01*
X032512Y015754D01*
X032467Y015732D01*
X032421Y015714D01*
X032373Y015699D01*
X032324Y015688D01*
X032275Y015681D01*
X032225Y015678D01*
X032174Y015679D01*
X032125Y015684D01*
X032075Y015693D01*
X032027Y015706D01*
X031980Y015722D01*
X031934Y015743D01*
X031890Y015767D01*
X031848Y015794D01*
X031808Y015824D01*
X031771Y015858D01*
X031737Y015895D01*
X031705Y015934D01*
X031677Y015975D01*
X031652Y016019D01*
X031631Y016064D01*
X031614Y016111D01*
X031600Y016159D01*
X031590Y016208D01*
X031584Y016258D01*
X031582Y016308D01*
X026873Y008930D02*
X026875Y008959D01*
X026881Y008987D01*
X026890Y009015D01*
X026903Y009041D01*
X026920Y009064D01*
X026939Y009086D01*
X026961Y009105D01*
X026986Y009120D01*
X027012Y009133D01*
X027040Y009141D01*
X027068Y009146D01*
X027097Y009147D01*
X027126Y009144D01*
X027154Y009137D01*
X027181Y009127D01*
X027207Y009113D01*
X027230Y009096D01*
X027251Y009076D01*
X027269Y009053D01*
X027284Y009028D01*
X027295Y009001D01*
X027303Y008973D01*
X027307Y008944D01*
X027307Y008916D01*
X027303Y008887D01*
X027295Y008859D01*
X027284Y008832D01*
X027269Y008807D01*
X027251Y008784D01*
X027230Y008764D01*
X027207Y008747D01*
X027181Y008733D01*
X027154Y008723D01*
X027126Y008716D01*
X027097Y008713D01*
X027068Y008714D01*
X027040Y008719D01*
X027012Y008727D01*
X026986Y008740D01*
X026961Y008755D01*
X026939Y008774D01*
X026920Y008796D01*
X026903Y008819D01*
X026890Y008845D01*
X026881Y008873D01*
X026875Y008901D01*
X026873Y008930D01*
X025873Y008930D02*
X025875Y008959D01*
X025881Y008987D01*
X025890Y009015D01*
X025903Y009041D01*
X025920Y009064D01*
X025939Y009086D01*
X025961Y009105D01*
X025986Y009120D01*
X026012Y009133D01*
X026040Y009141D01*
X026068Y009146D01*
X026097Y009147D01*
X026126Y009144D01*
X026154Y009137D01*
X026181Y009127D01*
X026207Y009113D01*
X026230Y009096D01*
X026251Y009076D01*
X026269Y009053D01*
X026284Y009028D01*
X026295Y009001D01*
X026303Y008973D01*
X026307Y008944D01*
X026307Y008916D01*
X026303Y008887D01*
X026295Y008859D01*
X026284Y008832D01*
X026269Y008807D01*
X026251Y008784D01*
X026230Y008764D01*
X026207Y008747D01*
X026181Y008733D01*
X026154Y008723D01*
X026126Y008716D01*
X026097Y008713D01*
X026068Y008714D01*
X026040Y008719D01*
X026012Y008727D01*
X025986Y008740D01*
X025961Y008755D01*
X025939Y008774D01*
X025920Y008796D01*
X025903Y008819D01*
X025890Y008845D01*
X025881Y008873D01*
X025875Y008901D01*
X025873Y008930D01*
X033777Y004103D02*
X033779Y004129D01*
X033785Y004155D01*
X033795Y004180D01*
X033808Y004203D01*
X033824Y004223D01*
X033844Y004241D01*
X033866Y004256D01*
X033889Y004268D01*
X033915Y004276D01*
X033941Y004280D01*
X033967Y004280D01*
X033993Y004276D01*
X034019Y004268D01*
X034043Y004256D01*
X034064Y004241D01*
X034084Y004223D01*
X034100Y004203D01*
X034113Y004180D01*
X034123Y004155D01*
X034129Y004129D01*
X034131Y004103D01*
X034129Y004077D01*
X034123Y004051D01*
X034113Y004026D01*
X034100Y004003D01*
X034084Y003983D01*
X034064Y003965D01*
X034042Y003950D01*
X034019Y003938D01*
X033993Y003930D01*
X033967Y003926D01*
X033941Y003926D01*
X033915Y003930D01*
X033889Y003938D01*
X033865Y003950D01*
X033844Y003965D01*
X033824Y003983D01*
X033808Y004003D01*
X033795Y004026D01*
X033785Y004051D01*
X033779Y004077D01*
X033777Y004103D01*
X036454Y004103D02*
X036456Y004129D01*
X036462Y004155D01*
X036472Y004180D01*
X036485Y004203D01*
X036501Y004223D01*
X036521Y004241D01*
X036543Y004256D01*
X036566Y004268D01*
X036592Y004276D01*
X036618Y004280D01*
X036644Y004280D01*
X036670Y004276D01*
X036696Y004268D01*
X036720Y004256D01*
X036741Y004241D01*
X036761Y004223D01*
X036777Y004203D01*
X036790Y004180D01*
X036800Y004155D01*
X036806Y004129D01*
X036808Y004103D01*
X036806Y004077D01*
X036800Y004051D01*
X036790Y004026D01*
X036777Y004003D01*
X036761Y003983D01*
X036741Y003965D01*
X036719Y003950D01*
X036696Y003938D01*
X036670Y003930D01*
X036644Y003926D01*
X036618Y003926D01*
X036592Y003930D01*
X036566Y003938D01*
X036542Y003950D01*
X036521Y003965D01*
X036501Y003983D01*
X036485Y004003D01*
X036472Y004026D01*
X036462Y004051D01*
X036456Y004077D01*
X036454Y004103D01*
X038289Y003680D02*
X038291Y003727D01*
X038297Y003773D01*
X038307Y003819D01*
X038320Y003864D01*
X038338Y003907D01*
X038359Y003949D01*
X038383Y003989D01*
X038411Y004026D01*
X038442Y004061D01*
X038476Y004094D01*
X038512Y004123D01*
X038551Y004149D01*
X038592Y004172D01*
X038635Y004191D01*
X038679Y004207D01*
X038724Y004219D01*
X038770Y004227D01*
X038817Y004231D01*
X038863Y004231D01*
X038910Y004227D01*
X038956Y004219D01*
X039001Y004207D01*
X039045Y004191D01*
X039088Y004172D01*
X039129Y004149D01*
X039168Y004123D01*
X039204Y004094D01*
X039238Y004061D01*
X039269Y004026D01*
X039297Y003989D01*
X039321Y003949D01*
X039342Y003907D01*
X039360Y003864D01*
X039373Y003819D01*
X039383Y003773D01*
X039389Y003727D01*
X039391Y003680D01*
X039389Y003633D01*
X039383Y003587D01*
X039373Y003541D01*
X039360Y003496D01*
X039342Y003453D01*
X039321Y003411D01*
X039297Y003371D01*
X039269Y003334D01*
X039238Y003299D01*
X039204Y003266D01*
X039168Y003237D01*
X039129Y003211D01*
X039088Y003188D01*
X039045Y003169D01*
X039001Y003153D01*
X038956Y003141D01*
X038910Y003133D01*
X038863Y003129D01*
X038817Y003129D01*
X038770Y003133D01*
X038724Y003141D01*
X038679Y003153D01*
X038635Y003169D01*
X038592Y003188D01*
X038551Y003211D01*
X038512Y003237D01*
X038476Y003266D01*
X038442Y003299D01*
X038411Y003334D01*
X038383Y003371D01*
X038359Y003411D01*
X038338Y003453D01*
X038320Y003496D01*
X038307Y003541D01*
X038297Y003587D01*
X038291Y003633D01*
X038289Y003680D01*
X015289Y012930D02*
X015291Y012977D01*
X015297Y013023D01*
X015307Y013069D01*
X015320Y013114D01*
X015338Y013157D01*
X015359Y013199D01*
X015383Y013239D01*
X015411Y013276D01*
X015442Y013311D01*
X015476Y013344D01*
X015512Y013373D01*
X015551Y013399D01*
X015592Y013422D01*
X015635Y013441D01*
X015679Y013457D01*
X015724Y013469D01*
X015770Y013477D01*
X015817Y013481D01*
X015863Y013481D01*
X015910Y013477D01*
X015956Y013469D01*
X016001Y013457D01*
X016045Y013441D01*
X016088Y013422D01*
X016129Y013399D01*
X016168Y013373D01*
X016204Y013344D01*
X016238Y013311D01*
X016269Y013276D01*
X016297Y013239D01*
X016321Y013199D01*
X016342Y013157D01*
X016360Y013114D01*
X016373Y013069D01*
X016383Y013023D01*
X016389Y012977D01*
X016391Y012930D01*
X016389Y012883D01*
X016383Y012837D01*
X016373Y012791D01*
X016360Y012746D01*
X016342Y012703D01*
X016321Y012661D01*
X016297Y012621D01*
X016269Y012584D01*
X016238Y012549D01*
X016204Y012516D01*
X016168Y012487D01*
X016129Y012461D01*
X016088Y012438D01*
X016045Y012419D01*
X016001Y012403D01*
X015956Y012391D01*
X015910Y012383D01*
X015863Y012379D01*
X015817Y012379D01*
X015770Y012383D01*
X015724Y012391D01*
X015679Y012403D01*
X015635Y012419D01*
X015592Y012438D01*
X015551Y012461D01*
X015512Y012487D01*
X015476Y012516D01*
X015442Y012549D01*
X015411Y012584D01*
X015383Y012621D01*
X015359Y012661D01*
X015338Y012703D01*
X015320Y012746D01*
X015307Y012791D01*
X015297Y012837D01*
X015291Y012883D01*
X015289Y012930D01*
X012373Y018430D02*
X012375Y018459D01*
X012381Y018487D01*
X012390Y018515D01*
X012403Y018541D01*
X012420Y018564D01*
X012439Y018586D01*
X012461Y018605D01*
X012486Y018620D01*
X012512Y018633D01*
X012540Y018641D01*
X012568Y018646D01*
X012597Y018647D01*
X012626Y018644D01*
X012654Y018637D01*
X012681Y018627D01*
X012707Y018613D01*
X012730Y018596D01*
X012751Y018576D01*
X012769Y018553D01*
X012784Y018528D01*
X012795Y018501D01*
X012803Y018473D01*
X012807Y018444D01*
X012807Y018416D01*
X012803Y018387D01*
X012795Y018359D01*
X012784Y018332D01*
X012769Y018307D01*
X012751Y018284D01*
X012730Y018264D01*
X012707Y018247D01*
X012681Y018233D01*
X012654Y018223D01*
X012626Y018216D01*
X012597Y018213D01*
X012568Y018214D01*
X012540Y018219D01*
X012512Y018227D01*
X012486Y018240D01*
X012461Y018255D01*
X012439Y018274D01*
X012420Y018296D01*
X012403Y018319D01*
X012390Y018345D01*
X012381Y018373D01*
X012375Y018401D01*
X012373Y018430D01*
X012373Y019430D02*
X012375Y019459D01*
X012381Y019487D01*
X012390Y019515D01*
X012403Y019541D01*
X012420Y019564D01*
X012439Y019586D01*
X012461Y019605D01*
X012486Y019620D01*
X012512Y019633D01*
X012540Y019641D01*
X012568Y019646D01*
X012597Y019647D01*
X012626Y019644D01*
X012654Y019637D01*
X012681Y019627D01*
X012707Y019613D01*
X012730Y019596D01*
X012751Y019576D01*
X012769Y019553D01*
X012784Y019528D01*
X012795Y019501D01*
X012803Y019473D01*
X012807Y019444D01*
X012807Y019416D01*
X012803Y019387D01*
X012795Y019359D01*
X012784Y019332D01*
X012769Y019307D01*
X012751Y019284D01*
X012730Y019264D01*
X012707Y019247D01*
X012681Y019233D01*
X012654Y019223D01*
X012626Y019216D01*
X012597Y019213D01*
X012568Y019214D01*
X012540Y019219D01*
X012512Y019227D01*
X012486Y019240D01*
X012461Y019255D01*
X012439Y019274D01*
X012420Y019296D01*
X012403Y019319D01*
X012390Y019345D01*
X012381Y019373D01*
X012375Y019401D01*
X012373Y019430D01*
X008747Y016308D02*
X008749Y016358D01*
X008755Y016408D01*
X008765Y016457D01*
X008779Y016505D01*
X008796Y016552D01*
X008817Y016597D01*
X008842Y016641D01*
X008870Y016682D01*
X008902Y016721D01*
X008936Y016758D01*
X008973Y016792D01*
X009013Y016822D01*
X009055Y016849D01*
X009099Y016873D01*
X009145Y016894D01*
X009192Y016910D01*
X009240Y016923D01*
X009290Y016932D01*
X009339Y016937D01*
X009390Y016938D01*
X009440Y016935D01*
X009489Y016928D01*
X009538Y016917D01*
X009586Y016902D01*
X009632Y016884D01*
X009677Y016862D01*
X009720Y016836D01*
X009761Y016807D01*
X009800Y016775D01*
X009836Y016740D01*
X009868Y016702D01*
X009898Y016662D01*
X009925Y016619D01*
X009948Y016575D01*
X009967Y016529D01*
X009983Y016481D01*
X009995Y016432D01*
X010003Y016383D01*
X010007Y016333D01*
X010007Y016283D01*
X010003Y016233D01*
X009995Y016184D01*
X009983Y016135D01*
X009967Y016087D01*
X009948Y016041D01*
X009925Y015997D01*
X009898Y015954D01*
X009868Y015914D01*
X009836Y015876D01*
X009800Y015841D01*
X009761Y015809D01*
X009720Y015780D01*
X009677Y015754D01*
X009632Y015732D01*
X009586Y015714D01*
X009538Y015699D01*
X009489Y015688D01*
X009440Y015681D01*
X009390Y015678D01*
X009339Y015679D01*
X009290Y015684D01*
X009240Y015693D01*
X009192Y015706D01*
X009145Y015722D01*
X009099Y015743D01*
X009055Y015767D01*
X009013Y015794D01*
X008973Y015824D01*
X008936Y015858D01*
X008902Y015895D01*
X008870Y015934D01*
X008842Y015975D01*
X008817Y016019D01*
X008796Y016064D01*
X008779Y016111D01*
X008765Y016159D01*
X008755Y016208D01*
X008749Y016258D01*
X008747Y016308D01*
X007880Y013587D02*
X007882Y013613D01*
X007888Y013639D01*
X007898Y013664D01*
X007911Y013687D01*
X007927Y013707D01*
X007947Y013725D01*
X007969Y013740D01*
X007992Y013752D01*
X008018Y013760D01*
X008044Y013764D01*
X008070Y013764D01*
X008096Y013760D01*
X008122Y013752D01*
X008146Y013740D01*
X008167Y013725D01*
X008187Y013707D01*
X008203Y013687D01*
X008216Y013664D01*
X008226Y013639D01*
X008232Y013613D01*
X008234Y013587D01*
X008232Y013561D01*
X008226Y013535D01*
X008216Y013510D01*
X008203Y013487D01*
X008187Y013467D01*
X008167Y013449D01*
X008145Y013434D01*
X008122Y013422D01*
X008096Y013414D01*
X008070Y013410D01*
X008044Y013410D01*
X008018Y013414D01*
X007992Y013422D01*
X007968Y013434D01*
X007947Y013449D01*
X007927Y013467D01*
X007911Y013487D01*
X007898Y013510D01*
X007888Y013535D01*
X007882Y013561D01*
X007880Y013587D01*
X007880Y010910D02*
X007882Y010936D01*
X007888Y010962D01*
X007898Y010987D01*
X007911Y011010D01*
X007927Y011030D01*
X007947Y011048D01*
X007969Y011063D01*
X007992Y011075D01*
X008018Y011083D01*
X008044Y011087D01*
X008070Y011087D01*
X008096Y011083D01*
X008122Y011075D01*
X008146Y011063D01*
X008167Y011048D01*
X008187Y011030D01*
X008203Y011010D01*
X008216Y010987D01*
X008226Y010962D01*
X008232Y010936D01*
X008234Y010910D01*
X008232Y010884D01*
X008226Y010858D01*
X008216Y010833D01*
X008203Y010810D01*
X008187Y010790D01*
X008167Y010772D01*
X008145Y010757D01*
X008122Y010745D01*
X008096Y010737D01*
X008070Y010733D01*
X008044Y010733D01*
X008018Y010737D01*
X007992Y010745D01*
X007968Y010757D01*
X007947Y010772D01*
X007927Y010790D01*
X007911Y010810D01*
X007898Y010833D01*
X007888Y010858D01*
X007882Y010884D01*
X007880Y010910D01*
D13*
X007349Y010476D02*
X008766Y010476D01*
X008766Y010870D01*
X009189Y010274D02*
X009370Y010094D01*
X009415Y010139D01*
X009415Y010229D01*
X009370Y010274D01*
X009189Y010274D01*
X009144Y010229D01*
X009144Y010139D01*
X009189Y010094D01*
X009370Y010094D01*
X009370Y009980D02*
X009415Y009935D01*
X009415Y009845D01*
X009370Y009800D01*
X009370Y009685D02*
X009415Y009640D01*
X009415Y009550D01*
X009370Y009505D01*
X009279Y009595D02*
X009279Y009640D01*
X009324Y009685D01*
X009370Y009685D01*
X009279Y009640D02*
X009234Y009685D01*
X009189Y009685D01*
X009144Y009640D01*
X009144Y009550D01*
X009189Y009505D01*
X009189Y009800D02*
X009144Y009845D01*
X009144Y009935D01*
X009189Y009980D01*
X009234Y009980D01*
X009279Y009935D01*
X009324Y009980D01*
X009370Y009980D01*
X009279Y009935D02*
X009279Y009890D01*
X008905Y008555D02*
X008770Y008555D01*
X008770Y008285D01*
X008905Y008285D01*
X008950Y008330D01*
X008950Y008510D01*
X008905Y008555D01*
X008655Y008555D02*
X008475Y008555D01*
X008475Y008285D01*
X008655Y008285D01*
X008565Y008420D02*
X008475Y008420D01*
X008361Y008285D02*
X008181Y008285D01*
X008181Y008555D01*
X008074Y008555D02*
X007984Y008555D01*
X008029Y008555D02*
X008029Y008285D01*
X007984Y008285D02*
X008074Y008285D01*
X007870Y008330D02*
X007825Y008285D01*
X007690Y008285D01*
X007690Y008555D01*
X007825Y008555D01*
X007870Y008510D01*
X007870Y008465D01*
X007825Y008420D01*
X007690Y008420D01*
X007825Y008420D02*
X007870Y008375D01*
X007870Y008330D01*
X007840Y007280D02*
X008840Y007280D01*
X009065Y007030D02*
X009110Y007075D01*
X009200Y007075D01*
X009245Y007030D01*
X009245Y006985D01*
X009200Y006940D01*
X009245Y006895D01*
X009245Y006850D01*
X009200Y006805D01*
X009110Y006805D01*
X009065Y006850D01*
X009155Y006940D02*
X009200Y006940D01*
X009359Y006850D02*
X009404Y006805D01*
X009494Y006805D01*
X009539Y006850D01*
X009539Y006895D01*
X009494Y006940D01*
X009449Y006940D01*
X009494Y006940D02*
X009539Y006985D01*
X009539Y007030D01*
X009494Y007075D01*
X009404Y007075D01*
X009359Y007030D01*
X009654Y007030D02*
X009654Y006850D01*
X009834Y007030D01*
X009834Y006850D01*
X009789Y006805D01*
X009699Y006805D01*
X009654Y006850D01*
X009654Y007030D02*
X009699Y007075D01*
X009789Y007075D01*
X009834Y007030D01*
X011075Y008035D02*
X011255Y008035D01*
X011165Y008035D02*
X011165Y008305D01*
X011075Y008215D01*
X011370Y008125D02*
X011550Y008305D01*
X011370Y008305D02*
X011370Y008035D01*
X011415Y008170D02*
X011550Y008035D01*
X011444Y006066D02*
X011444Y005886D01*
X011715Y005886D01*
X011715Y005772D02*
X011534Y005772D01*
X011579Y005886D02*
X011579Y005976D01*
X011715Y005772D02*
X011715Y005637D01*
X011670Y005592D01*
X011534Y005592D01*
X011489Y005477D02*
X011670Y005297D01*
X011715Y005297D01*
X011715Y005195D02*
X011715Y005150D01*
X011670Y005150D01*
X011670Y005195D01*
X011715Y005195D01*
X011715Y004990D02*
X011444Y004990D01*
X011579Y004855D01*
X011579Y005035D01*
X011444Y005297D02*
X011444Y005477D01*
X011489Y005477D01*
X012144Y005494D02*
X012415Y005494D01*
X012324Y005494D02*
X012144Y005674D01*
X012279Y005539D02*
X012415Y005674D01*
X012370Y005380D02*
X012415Y005335D01*
X012415Y005245D01*
X012370Y005200D01*
X012189Y005380D01*
X012370Y005380D01*
X012370Y005200D02*
X012189Y005200D01*
X012144Y005245D01*
X012144Y005335D01*
X012189Y005380D01*
X012415Y005085D02*
X012415Y004905D01*
X012415Y004995D02*
X012144Y004995D01*
X012234Y004905D01*
X012752Y005130D02*
X012797Y005085D01*
X012887Y005085D01*
X012932Y005130D01*
X013047Y005085D02*
X013047Y005355D01*
X012932Y005310D02*
X012887Y005355D01*
X012797Y005355D01*
X012752Y005310D01*
X012752Y005130D01*
X013047Y005220D02*
X013227Y005220D01*
X013341Y005220D02*
X013521Y005220D01*
X013521Y005265D02*
X013521Y005085D01*
X013636Y005085D02*
X013636Y005355D01*
X013771Y005355D01*
X013816Y005310D01*
X013816Y005220D01*
X013771Y005175D01*
X013636Y005175D01*
X013726Y005175D02*
X013816Y005085D01*
X013931Y005130D02*
X013976Y005085D01*
X014066Y005085D01*
X014111Y005130D01*
X014111Y005220D01*
X014021Y005220D01*
X014111Y005310D02*
X014066Y005355D01*
X013976Y005355D01*
X013931Y005310D01*
X013931Y005130D01*
X014225Y005085D02*
X014405Y005085D01*
X014520Y005085D02*
X014520Y005355D01*
X014655Y005355D01*
X014700Y005310D01*
X014700Y005220D01*
X014655Y005175D01*
X014520Y005175D01*
X014610Y005175D02*
X014700Y005085D01*
X014405Y005355D02*
X014225Y005355D01*
X014225Y005085D01*
X014225Y005220D02*
X014315Y005220D01*
X013521Y005265D02*
X013431Y005355D01*
X013341Y005265D01*
X013341Y005085D01*
X013227Y005085D02*
X013227Y005355D01*
X015714Y004891D02*
X015714Y004710D01*
X015985Y004710D01*
X015985Y004596D02*
X015804Y004596D01*
X015849Y004710D02*
X015849Y004800D01*
X015985Y004596D02*
X015985Y004461D01*
X015940Y004416D01*
X015804Y004416D01*
X015985Y004301D02*
X015985Y004121D01*
X015985Y004211D02*
X015714Y004211D01*
X015804Y004121D01*
X015940Y004019D02*
X015985Y004019D01*
X015985Y003974D01*
X015940Y003974D01*
X015940Y004019D01*
X015940Y003859D02*
X015985Y003814D01*
X015985Y003724D01*
X015940Y003679D01*
X015759Y003859D01*
X015940Y003859D01*
X015940Y003679D02*
X015759Y003679D01*
X015714Y003724D01*
X015714Y003814D01*
X015759Y003859D01*
X016685Y005080D02*
X016640Y005125D01*
X016640Y005170D01*
X016685Y005215D01*
X016775Y005215D01*
X016820Y005170D01*
X016820Y005125D01*
X016775Y005080D01*
X016685Y005080D01*
X016685Y005215D02*
X016640Y005260D01*
X016640Y005305D01*
X016685Y005350D01*
X016775Y005350D01*
X016820Y005305D01*
X016820Y005260D01*
X016775Y005215D01*
X016934Y005080D02*
X016934Y005350D01*
X017024Y005260D01*
X017114Y005350D01*
X017114Y005080D01*
X017229Y005080D02*
X017229Y005350D01*
X017229Y005215D02*
X017409Y005215D01*
X017409Y005350D02*
X017409Y005080D01*
X017524Y005080D02*
X017704Y005080D01*
X017524Y005080D02*
X017524Y005125D01*
X017704Y005305D01*
X017704Y005350D01*
X017524Y005350D01*
X018670Y005456D02*
X018760Y005366D01*
X018670Y005456D02*
X018940Y005456D01*
X018940Y005366D02*
X018940Y005546D01*
X018895Y005660D02*
X018715Y005840D01*
X018895Y005840D01*
X018940Y005795D01*
X018940Y005705D01*
X018895Y005660D01*
X018715Y005660D01*
X018670Y005705D01*
X018670Y005795D01*
X018715Y005840D01*
X018760Y005955D02*
X018895Y005955D01*
X018940Y006000D01*
X018940Y006135D01*
X018760Y006135D01*
X018805Y006250D02*
X018805Y006340D01*
X018670Y006250D02*
X018670Y006430D01*
X018670Y006250D02*
X018940Y006250D01*
X020115Y005725D02*
X020115Y005545D01*
X020205Y005455D01*
X020295Y005545D01*
X020295Y005725D01*
X020409Y005680D02*
X020454Y005725D01*
X020544Y005725D01*
X020589Y005680D01*
X020589Y005635D01*
X020544Y005590D01*
X020589Y005545D01*
X020589Y005500D01*
X020544Y005455D01*
X020454Y005455D01*
X020409Y005500D01*
X020499Y005590D02*
X020544Y005590D01*
X020704Y005500D02*
X020749Y005455D01*
X020839Y005455D01*
X020884Y005500D01*
X020884Y005545D01*
X020839Y005590D01*
X020794Y005590D01*
X020839Y005590D02*
X020884Y005635D01*
X020884Y005680D01*
X020839Y005725D01*
X020749Y005725D01*
X020704Y005680D01*
X022044Y005487D02*
X022134Y005397D01*
X022044Y005487D02*
X022315Y005487D01*
X022315Y005397D02*
X022315Y005577D01*
X022270Y005692D02*
X022315Y005737D01*
X022315Y005872D01*
X022134Y005872D01*
X022179Y005986D02*
X022179Y006076D01*
X022044Y005986D02*
X022044Y006166D01*
X022044Y005986D02*
X022315Y005986D01*
X022270Y005692D02*
X022134Y005692D01*
X022270Y005295D02*
X022315Y005295D01*
X022315Y005250D01*
X022270Y005250D01*
X022270Y005295D01*
X022270Y005135D02*
X022315Y005090D01*
X022315Y005000D01*
X022270Y004955D01*
X022089Y005135D01*
X022270Y005135D01*
X022270Y004955D02*
X022089Y004955D01*
X022044Y005000D01*
X022044Y005090D01*
X022089Y005135D01*
X023020Y005456D02*
X023110Y005366D01*
X023020Y005456D02*
X023290Y005456D01*
X023290Y005366D02*
X023290Y005546D01*
X023245Y005660D02*
X023065Y005840D01*
X023245Y005840D01*
X023290Y005795D01*
X023290Y005705D01*
X023245Y005660D01*
X023065Y005660D01*
X023020Y005705D01*
X023020Y005795D01*
X023065Y005840D01*
X023110Y005955D02*
X023245Y005955D01*
X023290Y006000D01*
X023290Y006135D01*
X023110Y006135D01*
X023155Y006250D02*
X023155Y006340D01*
X023020Y006250D02*
X023020Y006430D01*
X023020Y006250D02*
X023290Y006250D01*
X023864Y006091D02*
X024044Y005910D01*
X023999Y005955D02*
X024135Y006091D01*
X024135Y005910D02*
X023864Y005910D01*
X023909Y005796D02*
X024090Y005616D01*
X024135Y005661D01*
X024135Y005751D01*
X024090Y005796D01*
X023909Y005796D01*
X023864Y005751D01*
X023864Y005661D01*
X023909Y005616D01*
X024090Y005616D01*
X024135Y005501D02*
X024135Y005321D01*
X024135Y005411D02*
X023864Y005411D01*
X023954Y005321D01*
X023490Y004330D02*
X022690Y004330D01*
X024009Y007171D02*
X023964Y007216D01*
X023964Y007306D01*
X024009Y007351D01*
X024054Y007351D01*
X024099Y007306D01*
X024144Y007351D01*
X024190Y007351D01*
X024235Y007306D01*
X024235Y007216D01*
X024190Y007171D01*
X024099Y007261D02*
X024099Y007306D01*
X024009Y007466D02*
X023964Y007511D01*
X023964Y007601D01*
X024009Y007646D01*
X024054Y007646D01*
X024099Y007601D01*
X024144Y007646D01*
X024190Y007646D01*
X024235Y007601D01*
X024235Y007511D01*
X024190Y007466D01*
X024099Y007556D02*
X024099Y007601D01*
X024144Y007760D02*
X023964Y007941D01*
X023964Y007760D02*
X024235Y007760D01*
X024099Y007805D02*
X024235Y007941D01*
X022965Y008355D02*
X022965Y008535D01*
X022965Y008445D02*
X022694Y008445D01*
X022784Y008355D01*
X022784Y008650D02*
X022920Y008650D01*
X022965Y008695D01*
X022965Y008830D01*
X022784Y008830D01*
X022829Y008944D02*
X022829Y009034D01*
X022694Y008944D02*
X022694Y009124D01*
X022694Y008944D02*
X022965Y008944D01*
X021515Y008894D02*
X021244Y008894D01*
X021244Y008780D02*
X021289Y008690D01*
X021379Y008600D01*
X021379Y008735D01*
X021424Y008780D01*
X021470Y008780D01*
X021515Y008735D01*
X021515Y008645D01*
X021470Y008600D01*
X021379Y008600D01*
X021379Y008485D02*
X021470Y008485D01*
X021515Y008440D01*
X021515Y008350D01*
X021470Y008305D01*
X021379Y008305D02*
X021334Y008395D01*
X021334Y008440D01*
X021379Y008485D01*
X021244Y008485D02*
X021244Y008305D01*
X021379Y008305D01*
X021424Y008894D02*
X021244Y009074D01*
X021379Y008939D02*
X021515Y009074D01*
X020215Y007974D02*
X020079Y007839D01*
X020124Y007794D02*
X019944Y007974D01*
X019944Y007794D02*
X020215Y007794D01*
X020170Y007680D02*
X020215Y007635D01*
X020215Y007545D01*
X020170Y007500D01*
X020170Y007385D02*
X020215Y007340D01*
X020215Y007250D01*
X020170Y007205D01*
X020079Y007295D02*
X020079Y007340D01*
X020124Y007385D01*
X020170Y007385D01*
X020079Y007340D02*
X020034Y007385D01*
X019989Y007385D01*
X019944Y007340D01*
X019944Y007250D01*
X019989Y007205D01*
X019989Y007500D02*
X019944Y007545D01*
X019944Y007635D01*
X019989Y007680D01*
X020034Y007680D01*
X020079Y007635D01*
X020124Y007680D01*
X020170Y007680D01*
X020079Y007635D02*
X020079Y007590D01*
X018935Y008321D02*
X018935Y008501D01*
X018935Y008411D02*
X018664Y008411D01*
X018754Y008321D01*
X018754Y008616D02*
X018890Y008616D01*
X018935Y008661D01*
X018935Y008796D01*
X018754Y008796D01*
X018799Y008910D02*
X018799Y009000D01*
X018664Y008910D02*
X018664Y009091D01*
X018664Y008910D02*
X018935Y008910D01*
X018670Y011005D02*
X018489Y011185D01*
X018670Y011185D01*
X018715Y011140D01*
X018715Y011050D01*
X018670Y011005D01*
X018489Y011005D01*
X018444Y011050D01*
X018444Y011140D01*
X018489Y011185D01*
X018670Y011300D02*
X018670Y011345D01*
X018715Y011345D01*
X018715Y011300D01*
X018670Y011300D01*
X018715Y011447D02*
X018715Y011627D01*
X018715Y011537D02*
X018444Y011537D01*
X018534Y011447D01*
X018534Y011742D02*
X018670Y011742D01*
X018715Y011787D01*
X018715Y011922D01*
X018534Y011922D01*
X018579Y012036D02*
X018579Y012126D01*
X018444Y012036D02*
X018444Y012216D01*
X018444Y012036D02*
X018715Y012036D01*
X017965Y012036D02*
X017694Y012036D01*
X017694Y012216D01*
X017829Y012126D02*
X017829Y012036D01*
X017784Y011922D02*
X017965Y011922D01*
X017965Y011787D01*
X017920Y011742D01*
X017784Y011742D01*
X017965Y011627D02*
X017965Y011447D01*
X017965Y011537D02*
X017694Y011537D01*
X017784Y011447D01*
X017920Y011345D02*
X017965Y011345D01*
X017965Y011300D01*
X017920Y011300D01*
X017920Y011345D01*
X017920Y011185D02*
X017965Y011140D01*
X017965Y011050D01*
X017920Y011005D01*
X017739Y011185D01*
X017920Y011185D01*
X017920Y011005D02*
X017739Y011005D01*
X017694Y011050D01*
X017694Y011140D01*
X017739Y011185D01*
X017250Y011180D02*
X017250Y011225D01*
X017205Y011270D01*
X017115Y011270D01*
X017070Y011315D01*
X017070Y011360D01*
X017115Y011405D01*
X017205Y011405D01*
X017250Y011360D01*
X017250Y011315D01*
X017205Y011270D01*
X017115Y011270D02*
X017070Y011225D01*
X017070Y011180D01*
X017115Y011135D01*
X017205Y011135D01*
X017250Y011180D01*
X016955Y011180D02*
X016955Y011225D01*
X016910Y011270D01*
X016775Y011270D01*
X016775Y011180D01*
X016820Y011135D01*
X016910Y011135D01*
X016955Y011180D01*
X016865Y011360D02*
X016775Y011270D01*
X016865Y011360D02*
X016955Y011405D01*
X016571Y011405D02*
X016571Y011135D01*
X016481Y011135D02*
X016661Y011135D01*
X016481Y011315D02*
X016571Y011405D01*
X016366Y011315D02*
X016366Y011135D01*
X016366Y011270D02*
X016186Y011270D01*
X016186Y011315D02*
X016276Y011405D01*
X016366Y011315D01*
X016186Y011315D02*
X016186Y011135D01*
X016071Y011180D02*
X016071Y011270D01*
X015981Y011270D01*
X015891Y011360D02*
X015891Y011180D01*
X015936Y011135D01*
X016026Y011135D01*
X016071Y011180D01*
X016071Y011360D02*
X016026Y011405D01*
X015936Y011405D01*
X015891Y011360D01*
X015777Y011405D02*
X015597Y011405D01*
X015597Y011135D01*
X015777Y011135D01*
X015687Y011270D02*
X015597Y011270D01*
X015482Y011405D02*
X015482Y011135D01*
X015302Y011135D02*
X015302Y011405D01*
X015392Y011315D01*
X015482Y011405D01*
X015188Y011405D02*
X015007Y011405D01*
X015097Y011405D02*
X015097Y011135D01*
X014893Y011135D02*
X014893Y011315D01*
X014803Y011405D01*
X014713Y011315D01*
X014713Y011135D01*
X014713Y011270D02*
X014893Y011270D01*
X014252Y011355D02*
X014252Y011535D01*
X014252Y011445D02*
X013982Y011445D01*
X014072Y011355D01*
X014027Y011650D02*
X013982Y011695D01*
X013982Y011785D01*
X014027Y011830D01*
X014207Y011650D01*
X014252Y011695D01*
X014252Y011785D01*
X014207Y011830D01*
X014027Y011830D01*
X013982Y011944D02*
X014252Y011944D01*
X014162Y011944D02*
X013982Y012124D01*
X014117Y011989D02*
X014252Y012124D01*
X014207Y011650D02*
X014027Y011650D01*
X013502Y011695D02*
X013457Y011650D01*
X013277Y011830D01*
X013457Y011830D01*
X013502Y011785D01*
X013502Y011695D01*
X013457Y011650D02*
X013277Y011650D01*
X013232Y011695D01*
X013232Y011785D01*
X013277Y011830D01*
X013232Y011944D02*
X013502Y011944D01*
X013412Y011944D02*
X013232Y012124D01*
X013367Y011989D02*
X013502Y012124D01*
X013502Y011535D02*
X013502Y011355D01*
X013502Y011445D02*
X013232Y011445D01*
X013322Y011355D01*
X012620Y011885D02*
X012620Y012155D01*
X012800Y012155D01*
X012710Y012020D02*
X012620Y012020D01*
X012505Y012065D02*
X012505Y011885D01*
X012370Y011885D01*
X012325Y011930D01*
X012325Y012065D01*
X012211Y012110D02*
X012031Y011930D01*
X012031Y011885D01*
X011928Y011885D02*
X011883Y011885D01*
X011883Y011930D01*
X011928Y011930D01*
X011928Y011885D01*
X011724Y011885D02*
X011724Y012155D01*
X011589Y012020D01*
X011769Y012020D01*
X012031Y012155D02*
X012211Y012155D01*
X012211Y012110D01*
X011281Y012955D02*
X011281Y013135D01*
X011191Y013225D01*
X011101Y013135D01*
X011101Y012955D01*
X010987Y013000D02*
X010942Y012955D01*
X010852Y012955D01*
X010807Y013000D01*
X010807Y013090D02*
X010897Y013135D01*
X010942Y013135D01*
X010987Y013090D01*
X010987Y013000D01*
X011101Y013090D02*
X011281Y013090D01*
X010987Y013225D02*
X010807Y013225D01*
X010807Y013090D01*
X010704Y013000D02*
X010704Y012955D01*
X010659Y012955D01*
X010659Y013000D01*
X010704Y013000D01*
X010545Y013000D02*
X010500Y012955D01*
X010410Y012955D01*
X010365Y013000D01*
X010545Y013180D01*
X010545Y013000D01*
X010545Y013180D02*
X010500Y013225D01*
X010410Y013225D01*
X010365Y013180D01*
X010365Y013000D01*
X010166Y012854D02*
X010166Y012719D01*
X010121Y012674D01*
X010031Y012674D01*
X009986Y012719D01*
X009986Y012854D01*
X009896Y012854D02*
X010166Y012854D01*
X010121Y012560D02*
X009941Y012560D01*
X009896Y012515D01*
X009896Y012424D01*
X009941Y012379D01*
X010121Y012379D01*
X010166Y012424D01*
X010166Y012515D01*
X010121Y012560D01*
X010166Y012265D02*
X009896Y012265D01*
X009986Y012175D01*
X009896Y012085D01*
X010166Y012085D01*
X010166Y011970D02*
X009896Y011970D01*
X009896Y011790D01*
X009896Y011676D02*
X010166Y011676D01*
X010166Y011540D01*
X010121Y011495D01*
X010031Y011495D01*
X009986Y011540D01*
X009986Y011676D01*
X009986Y011586D02*
X009896Y011495D01*
X010166Y011790D02*
X010166Y011970D01*
X010031Y011970D02*
X010031Y011880D01*
X008766Y013626D02*
X008766Y014020D01*
X007349Y014020D01*
X007349Y010476D01*
X007265Y005366D02*
X007265Y003004D01*
X010144Y003905D02*
X010144Y004040D01*
X010189Y004085D01*
X010370Y004085D01*
X010415Y004040D01*
X010415Y003905D01*
X010144Y003905D01*
X010234Y004200D02*
X010144Y004290D01*
X010415Y004290D01*
X010415Y004200D02*
X010415Y004380D01*
X018440Y004330D02*
X019240Y004330D01*
X025214Y008271D02*
X025349Y008271D01*
X025304Y008361D01*
X025304Y008406D01*
X025349Y008451D01*
X025440Y008451D01*
X025485Y008406D01*
X025485Y008316D01*
X025440Y008271D01*
X025214Y008271D02*
X025214Y008451D01*
X025349Y008566D02*
X025349Y008701D01*
X025394Y008746D01*
X025440Y008746D01*
X025485Y008701D01*
X025485Y008611D01*
X025440Y008566D01*
X025349Y008566D01*
X025259Y008656D01*
X025214Y008746D01*
X025214Y008860D02*
X025485Y008860D01*
X025394Y008860D02*
X025214Y009041D01*
X025349Y008905D02*
X025485Y009041D01*
X025590Y009430D02*
X025590Y013430D01*
X027590Y013430D01*
X027634Y013711D02*
X027815Y013711D01*
X027929Y013711D02*
X027929Y013981D01*
X028109Y013981D01*
X028019Y013846D02*
X027929Y013846D01*
X027929Y013711D02*
X028109Y013711D01*
X027634Y013711D02*
X027634Y013981D01*
X027520Y013981D02*
X027520Y013756D01*
X027475Y013711D01*
X027385Y013711D01*
X027340Y013756D01*
X027340Y013981D01*
X027225Y013936D02*
X027180Y013981D01*
X027045Y013981D01*
X027045Y013711D01*
X027180Y013711D01*
X027225Y013756D01*
X027225Y013936D01*
X026931Y013936D02*
X026931Y013756D01*
X026886Y013711D01*
X026796Y013711D01*
X026750Y013756D01*
X026750Y013936D01*
X026796Y013981D01*
X026886Y013981D01*
X026931Y013936D01*
X026636Y013981D02*
X026636Y013711D01*
X026456Y013711D02*
X026456Y013981D01*
X026546Y013891D01*
X026636Y013981D01*
X026341Y013981D02*
X026161Y013981D01*
X026161Y013711D01*
X026047Y013711D02*
X025957Y013801D01*
X026002Y013801D02*
X025867Y013801D01*
X025867Y013711D02*
X025867Y013981D01*
X026002Y013981D01*
X026047Y013936D01*
X026047Y013846D01*
X026002Y013801D01*
X026161Y013846D02*
X026251Y013846D01*
X028165Y012480D02*
X028165Y012300D01*
X028345Y012480D01*
X028345Y012300D01*
X028300Y012255D01*
X028210Y012255D01*
X028165Y012300D01*
X028165Y012480D02*
X028210Y012525D01*
X028300Y012525D01*
X028345Y012480D01*
X028459Y012300D02*
X028504Y012300D01*
X028504Y012255D01*
X028459Y012255D01*
X028459Y012300D01*
X028607Y012255D02*
X028787Y012255D01*
X028697Y012255D02*
X028697Y012525D01*
X028607Y012435D01*
X028901Y012435D02*
X028901Y012300D01*
X028946Y012255D01*
X029081Y012255D01*
X029081Y012435D01*
X029196Y012390D02*
X029286Y012390D01*
X029196Y012255D02*
X029196Y012525D01*
X029376Y012525D01*
X027590Y009430D02*
X025590Y009430D01*
X028619Y008413D02*
X028664Y008458D01*
X028709Y008458D01*
X028754Y008413D01*
X028754Y008323D01*
X028709Y008278D01*
X028664Y008278D01*
X028619Y008323D01*
X028619Y008413D01*
X028754Y008413D02*
X028799Y008458D01*
X028845Y008458D01*
X028890Y008413D01*
X028890Y008323D01*
X028845Y008278D01*
X028799Y008278D01*
X028754Y008323D01*
X028709Y008164D02*
X028754Y008119D01*
X028799Y008164D01*
X028845Y008164D01*
X028890Y008119D01*
X028890Y008029D01*
X028845Y007984D01*
X028890Y007869D02*
X028890Y007689D01*
X028890Y007779D02*
X028619Y007779D01*
X028709Y007689D01*
X028664Y007574D02*
X028619Y007529D01*
X028619Y007439D01*
X028664Y007394D01*
X028709Y007394D01*
X028754Y007439D01*
X028754Y007529D01*
X028799Y007574D01*
X028845Y007574D01*
X028890Y007529D01*
X028890Y007439D01*
X028845Y007394D01*
X028845Y007280D02*
X028890Y007235D01*
X028890Y007145D01*
X028845Y007100D01*
X028754Y007145D02*
X028754Y007235D01*
X028799Y007280D01*
X028845Y007280D01*
X028754Y007145D02*
X028709Y007100D01*
X028664Y007100D01*
X028619Y007145D01*
X028619Y007235D01*
X028664Y007280D01*
X028664Y006985D02*
X028709Y006985D01*
X028754Y006940D01*
X028754Y006805D01*
X028619Y006805D02*
X028890Y006805D01*
X028890Y006940D01*
X028845Y006985D01*
X028799Y006985D01*
X028754Y006940D01*
X028664Y006985D02*
X028619Y006940D01*
X028619Y006805D01*
X028664Y007984D02*
X028619Y008029D01*
X028619Y008119D01*
X028664Y008164D01*
X028709Y008164D01*
X028754Y008119D02*
X028754Y008074D01*
X030565Y007235D02*
X030655Y007325D01*
X030655Y007055D01*
X030565Y007055D02*
X030745Y007055D01*
X030859Y007100D02*
X031039Y007280D01*
X031039Y007100D01*
X030994Y007055D01*
X030904Y007055D01*
X030859Y007100D01*
X030859Y007280D01*
X030904Y007325D01*
X030994Y007325D01*
X031039Y007280D01*
X031154Y007280D02*
X031199Y007325D01*
X031289Y007325D01*
X031334Y007280D01*
X031154Y007100D01*
X031199Y007055D01*
X031289Y007055D01*
X031334Y007100D01*
X031334Y007280D01*
X031449Y007325D02*
X031449Y007055D01*
X031449Y007145D02*
X031629Y007325D01*
X031494Y007190D02*
X031629Y007055D01*
X031154Y007100D02*
X031154Y007280D01*
X033521Y004812D02*
X033914Y004812D01*
X033521Y004812D02*
X033521Y003395D01*
X037064Y003395D01*
X037064Y004812D01*
X036670Y004812D01*
X037867Y005024D02*
X037867Y014336D01*
X031212Y016308D02*
X031214Y016371D01*
X031220Y016433D01*
X031230Y016495D01*
X031243Y016557D01*
X031261Y016617D01*
X031282Y016676D01*
X031307Y016734D01*
X031336Y016790D01*
X031368Y016844D01*
X031403Y016896D01*
X031441Y016945D01*
X031483Y016993D01*
X031527Y017037D01*
X031575Y017079D01*
X031624Y017117D01*
X031676Y017152D01*
X031730Y017184D01*
X031786Y017213D01*
X031844Y017238D01*
X031903Y017259D01*
X031963Y017277D01*
X032025Y017290D01*
X032087Y017300D01*
X032149Y017306D01*
X032212Y017308D01*
X032275Y017306D01*
X032337Y017300D01*
X032399Y017290D01*
X032461Y017277D01*
X032521Y017259D01*
X032580Y017238D01*
X032638Y017213D01*
X032694Y017184D01*
X032748Y017152D01*
X032800Y017117D01*
X032849Y017079D01*
X032897Y017037D01*
X032941Y016993D01*
X032983Y016945D01*
X033021Y016896D01*
X033056Y016844D01*
X033088Y016790D01*
X033117Y016734D01*
X033142Y016676D01*
X033163Y016617D01*
X033181Y016557D01*
X033194Y016495D01*
X033204Y016433D01*
X033210Y016371D01*
X033212Y016308D01*
X033210Y016245D01*
X033204Y016183D01*
X033194Y016121D01*
X033181Y016059D01*
X033163Y015999D01*
X033142Y015940D01*
X033117Y015882D01*
X033088Y015826D01*
X033056Y015772D01*
X033021Y015720D01*
X032983Y015671D01*
X032941Y015623D01*
X032897Y015579D01*
X032849Y015537D01*
X032800Y015499D01*
X032748Y015464D01*
X032694Y015432D01*
X032638Y015403D01*
X032580Y015378D01*
X032521Y015357D01*
X032461Y015339D01*
X032399Y015326D01*
X032337Y015316D01*
X032275Y015310D01*
X032212Y015308D01*
X032149Y015310D01*
X032087Y015316D01*
X032025Y015326D01*
X031963Y015339D01*
X031903Y015357D01*
X031844Y015378D01*
X031786Y015403D01*
X031730Y015432D01*
X031676Y015464D01*
X031624Y015499D01*
X031575Y015537D01*
X031527Y015579D01*
X031483Y015623D01*
X031441Y015671D01*
X031403Y015720D01*
X031368Y015772D01*
X031336Y015826D01*
X031307Y015882D01*
X031282Y015940D01*
X031261Y015999D01*
X031243Y016059D01*
X031230Y016121D01*
X031220Y016183D01*
X031214Y016245D01*
X031212Y016308D01*
X031664Y017671D02*
X031935Y017671D01*
X031935Y017851D01*
X031935Y017966D02*
X031664Y017966D01*
X031664Y018101D01*
X031709Y018146D01*
X031799Y018146D01*
X031844Y018101D01*
X031844Y017966D01*
X031844Y018056D02*
X031935Y018146D01*
X031935Y018260D02*
X031935Y018441D01*
X031935Y018350D02*
X031664Y018350D01*
X031754Y018260D01*
X030368Y019325D02*
X030323Y019280D01*
X030233Y019280D01*
X030188Y019325D01*
X030188Y019370D01*
X030233Y019415D01*
X030323Y019415D01*
X030368Y019370D01*
X030368Y019325D01*
X030323Y019415D02*
X030368Y019460D01*
X030368Y019505D01*
X030323Y019550D01*
X030233Y019550D01*
X030188Y019505D01*
X030188Y019460D01*
X030233Y019415D01*
X030073Y019370D02*
X030073Y019325D01*
X030028Y019280D01*
X029938Y019280D01*
X029893Y019325D01*
X029779Y019280D02*
X029599Y019280D01*
X029689Y019280D02*
X029689Y019550D01*
X029599Y019460D01*
X029484Y019505D02*
X029439Y019550D01*
X029349Y019550D01*
X029304Y019505D01*
X029304Y019460D01*
X029349Y019415D01*
X029439Y019415D01*
X029484Y019370D01*
X029484Y019325D01*
X029439Y019280D01*
X029349Y019280D01*
X029304Y019325D01*
X029189Y019325D02*
X029144Y019280D01*
X029054Y019280D01*
X029009Y019325D01*
X029054Y019415D02*
X029144Y019415D01*
X029189Y019370D01*
X029189Y019325D01*
X029054Y019415D02*
X029009Y019460D01*
X029009Y019505D01*
X029054Y019550D01*
X029144Y019550D01*
X029189Y019505D01*
X028895Y019505D02*
X028895Y019460D01*
X028850Y019415D01*
X028715Y019415D01*
X028850Y019415D02*
X028895Y019370D01*
X028895Y019325D01*
X028850Y019280D01*
X028715Y019280D01*
X028715Y019550D01*
X028850Y019550D01*
X028895Y019505D01*
X029893Y019505D02*
X029938Y019550D01*
X030028Y019550D01*
X030073Y019505D01*
X030073Y019460D01*
X030028Y019415D01*
X030073Y019370D01*
X030028Y019415D02*
X029983Y019415D01*
X031664Y019921D02*
X031935Y019921D01*
X031935Y020101D01*
X031890Y020216D02*
X031935Y020261D01*
X031935Y020351D01*
X031890Y020396D01*
X031799Y020396D01*
X031799Y020306D01*
X031709Y020396D02*
X031664Y020351D01*
X031664Y020261D01*
X031709Y020216D01*
X031890Y020216D01*
X031935Y020510D02*
X031754Y020691D01*
X031709Y020691D01*
X031664Y020645D01*
X031664Y020555D01*
X031709Y020510D01*
X031935Y020510D02*
X031935Y020691D01*
X027965Y020629D02*
X027965Y020539D01*
X027920Y020494D01*
X027739Y020674D01*
X027920Y020674D01*
X027965Y020629D01*
X027920Y020494D02*
X027739Y020494D01*
X027694Y020539D01*
X027694Y020629D01*
X027739Y020674D01*
X027694Y020789D02*
X027965Y020789D01*
X027874Y020789D02*
X027694Y020969D01*
X027829Y020834D02*
X027965Y020969D01*
X027920Y020380D02*
X027739Y020380D01*
X027920Y020200D01*
X027965Y020245D01*
X027965Y020335D01*
X027920Y020380D01*
X027920Y020200D02*
X027739Y020200D01*
X027694Y020245D01*
X027694Y020335D01*
X027739Y020380D01*
X027965Y020085D02*
X027965Y019905D01*
X027965Y019995D02*
X027694Y019995D01*
X027784Y019905D01*
X027694Y018969D02*
X027874Y018789D01*
X027829Y018834D02*
X027965Y018969D01*
X027965Y018789D02*
X027694Y018789D01*
X027739Y018674D02*
X027920Y018494D01*
X027965Y018539D01*
X027965Y018629D01*
X027920Y018674D01*
X027739Y018674D01*
X027694Y018629D01*
X027694Y018539D01*
X027739Y018494D01*
X027920Y018494D01*
X027920Y018380D02*
X027965Y018335D01*
X027965Y018245D01*
X027920Y018200D01*
X027739Y018380D01*
X027920Y018380D01*
X027920Y018200D02*
X027739Y018200D01*
X027694Y018245D01*
X027694Y018335D01*
X027739Y018380D01*
X027965Y018085D02*
X027965Y017905D01*
X027965Y017995D02*
X027694Y017995D01*
X027784Y017905D01*
X026995Y018458D02*
X017684Y018458D01*
X017515Y018477D02*
X017515Y018297D01*
X017515Y018387D02*
X017244Y018387D01*
X017334Y018297D01*
X017470Y018195D02*
X017515Y018195D01*
X017515Y018150D01*
X017470Y018150D01*
X017470Y018195D01*
X017470Y018035D02*
X017515Y017990D01*
X017515Y017900D01*
X017470Y017855D01*
X017289Y018035D01*
X017470Y018035D01*
X017470Y017855D02*
X017289Y017855D01*
X017244Y017900D01*
X017244Y017990D01*
X017289Y018035D01*
X017334Y018592D02*
X017470Y018592D01*
X017515Y018637D01*
X017515Y018772D01*
X017334Y018772D01*
X017379Y018886D02*
X017379Y018976D01*
X017244Y018886D02*
X017244Y019066D01*
X017244Y018886D02*
X017515Y018886D01*
X015465Y018694D02*
X015194Y018694D01*
X015194Y018874D01*
X015329Y018784D02*
X015329Y018694D01*
X015284Y018580D02*
X015465Y018580D01*
X015465Y018445D01*
X015420Y018400D01*
X015284Y018400D01*
X015465Y018285D02*
X015465Y018105D01*
X015465Y018195D02*
X015194Y018195D01*
X015284Y018105D01*
X012090Y017930D02*
X008090Y017930D01*
X008090Y019930D01*
X007809Y019975D02*
X007809Y020155D01*
X007809Y020270D02*
X007809Y020450D01*
X007674Y020360D02*
X007674Y020270D01*
X007809Y020270D02*
X007538Y020270D01*
X007538Y020450D01*
X007538Y019975D02*
X007809Y019975D01*
X007764Y019860D02*
X007538Y019860D01*
X007538Y019680D02*
X007764Y019680D01*
X007809Y019725D01*
X007809Y019815D01*
X007764Y019860D01*
X007764Y019566D02*
X007583Y019566D01*
X007538Y019521D01*
X007538Y019386D01*
X007809Y019386D01*
X007809Y019521D01*
X007764Y019566D01*
X007764Y019271D02*
X007583Y019271D01*
X007538Y019226D01*
X007538Y019136D01*
X007583Y019091D01*
X007764Y019091D01*
X007809Y019136D01*
X007809Y019226D01*
X007764Y019271D01*
X007809Y018976D02*
X007538Y018976D01*
X007629Y018886D01*
X007538Y018796D01*
X007809Y018796D01*
X007674Y018592D02*
X007674Y018502D01*
X007674Y018387D02*
X007719Y018342D01*
X007719Y018207D01*
X007809Y018207D02*
X007538Y018207D01*
X007538Y018342D01*
X007583Y018387D01*
X007674Y018387D01*
X007719Y018297D02*
X007809Y018387D01*
X007809Y018502D02*
X007538Y018502D01*
X007538Y018682D01*
X008160Y021055D02*
X008115Y021100D01*
X008295Y021280D01*
X008295Y021100D01*
X008250Y021055D01*
X008160Y021055D01*
X008115Y021100D02*
X008115Y021280D01*
X008160Y021325D01*
X008250Y021325D01*
X008295Y021280D01*
X008409Y021100D02*
X008454Y021100D01*
X008454Y021055D01*
X008409Y021055D01*
X008409Y021100D01*
X008557Y021055D02*
X008737Y021055D01*
X008647Y021055D02*
X008647Y021325D01*
X008557Y021235D01*
X008851Y021235D02*
X008851Y021100D01*
X008896Y021055D01*
X009031Y021055D01*
X009031Y021235D01*
X009146Y021190D02*
X009236Y021190D01*
X009146Y021055D02*
X009146Y021325D01*
X009326Y021325D01*
X009615Y021190D02*
X009795Y021190D01*
X009750Y021055D02*
X009750Y021325D01*
X009615Y021190D01*
X009909Y021100D02*
X009954Y021100D01*
X009954Y021055D01*
X009909Y021055D01*
X009909Y021100D01*
X010057Y021100D02*
X010057Y021055D01*
X010057Y021100D02*
X010237Y021280D01*
X010237Y021325D01*
X010057Y021325D01*
X010351Y021235D02*
X010351Y021100D01*
X010396Y021055D01*
X010531Y021055D01*
X010531Y021235D01*
X010646Y021190D02*
X010736Y021190D01*
X010646Y021055D02*
X010646Y021325D01*
X010826Y021325D01*
X012090Y019930D02*
X012090Y017930D01*
X008377Y016308D02*
X008379Y016371D01*
X008385Y016433D01*
X008395Y016495D01*
X008408Y016557D01*
X008426Y016617D01*
X008447Y016676D01*
X008472Y016734D01*
X008501Y016790D01*
X008533Y016844D01*
X008568Y016896D01*
X008606Y016945D01*
X008648Y016993D01*
X008692Y017037D01*
X008740Y017079D01*
X008789Y017117D01*
X008841Y017152D01*
X008895Y017184D01*
X008951Y017213D01*
X009009Y017238D01*
X009068Y017259D01*
X009128Y017277D01*
X009190Y017290D01*
X009252Y017300D01*
X009314Y017306D01*
X009377Y017308D01*
X009440Y017306D01*
X009502Y017300D01*
X009564Y017290D01*
X009626Y017277D01*
X009686Y017259D01*
X009745Y017238D01*
X009803Y017213D01*
X009859Y017184D01*
X009913Y017152D01*
X009965Y017117D01*
X010014Y017079D01*
X010062Y017037D01*
X010106Y016993D01*
X010148Y016945D01*
X010186Y016896D01*
X010221Y016844D01*
X010253Y016790D01*
X010282Y016734D01*
X010307Y016676D01*
X010328Y016617D01*
X010346Y016557D01*
X010359Y016495D01*
X010369Y016433D01*
X010375Y016371D01*
X010377Y016308D01*
X010375Y016245D01*
X010369Y016183D01*
X010359Y016121D01*
X010346Y016059D01*
X010328Y015999D01*
X010307Y015940D01*
X010282Y015882D01*
X010253Y015826D01*
X010221Y015772D01*
X010186Y015720D01*
X010148Y015671D01*
X010106Y015623D01*
X010062Y015579D01*
X010014Y015537D01*
X009965Y015499D01*
X009913Y015464D01*
X009859Y015432D01*
X009803Y015403D01*
X009745Y015378D01*
X009686Y015357D01*
X009626Y015339D01*
X009564Y015326D01*
X009502Y015316D01*
X009440Y015310D01*
X009377Y015308D01*
X009314Y015310D01*
X009252Y015316D01*
X009190Y015326D01*
X009128Y015339D01*
X009068Y015357D01*
X009009Y015378D01*
X008951Y015403D01*
X008895Y015432D01*
X008841Y015464D01*
X008789Y015499D01*
X008740Y015537D01*
X008692Y015579D01*
X008648Y015623D01*
X008606Y015671D01*
X008568Y015720D01*
X008533Y015772D01*
X008501Y015826D01*
X008472Y015882D01*
X008447Y015940D01*
X008426Y015999D01*
X008408Y016059D01*
X008395Y016121D01*
X008385Y016183D01*
X008379Y016245D01*
X008377Y016308D01*
X031001Y004109D02*
X030966Y003978D01*
X031227Y003908D01*
X031262Y004039D01*
X031230Y004094D01*
X031187Y004106D01*
X031131Y004074D01*
X031096Y003943D01*
X031131Y004074D02*
X031100Y004129D01*
X031056Y004140D01*
X031001Y004109D01*
X030938Y003875D02*
X030915Y003788D01*
X030927Y003832D02*
X031188Y003762D01*
X031199Y003805D02*
X031176Y003718D01*
X031059Y003631D02*
X030885Y003678D01*
X030839Y003504D02*
X031013Y003457D01*
X031123Y003521D01*
X031059Y003631D01*
X031365Y003225D02*
X031455Y003225D01*
X031410Y003225D02*
X031410Y002955D01*
X031365Y002955D02*
X031455Y002955D01*
X031561Y003000D02*
X031606Y002955D01*
X031696Y002955D01*
X031741Y003000D01*
X031741Y003045D01*
X031696Y003090D01*
X031606Y003090D01*
X031561Y003135D01*
X031561Y003180D01*
X031606Y003225D01*
X031696Y003225D01*
X031741Y003180D01*
X031856Y003225D02*
X031991Y003225D01*
X032036Y003180D01*
X032036Y003090D01*
X031991Y003045D01*
X031856Y003045D01*
X031856Y002955D02*
X031856Y003225D01*
X032150Y003135D02*
X032240Y003225D01*
X032240Y002955D01*
X032150Y002955D02*
X032330Y002955D01*
X034194Y006355D02*
X034329Y006355D01*
X034284Y006445D01*
X034284Y006490D01*
X034329Y006535D01*
X034420Y006535D01*
X034465Y006490D01*
X034465Y006400D01*
X034420Y006355D01*
X034194Y006355D02*
X034194Y006535D01*
X034329Y006650D02*
X034329Y006785D01*
X034374Y006830D01*
X034420Y006830D01*
X034465Y006785D01*
X034465Y006695D01*
X034420Y006650D01*
X034329Y006650D01*
X034239Y006740D01*
X034194Y006830D01*
X034194Y006944D02*
X034465Y006944D01*
X034374Y006944D02*
X034194Y007124D01*
X034329Y006989D02*
X034465Y007124D01*
X035414Y007516D02*
X035414Y007606D01*
X035459Y007651D01*
X035504Y007651D01*
X035549Y007606D01*
X035594Y007651D01*
X035640Y007651D01*
X035685Y007606D01*
X035685Y007516D01*
X035640Y007471D01*
X035549Y007561D02*
X035549Y007606D01*
X035459Y007471D02*
X035414Y007516D01*
X035459Y007766D02*
X035414Y007811D01*
X035414Y007901D01*
X035459Y007946D01*
X035504Y007946D01*
X035549Y007901D01*
X035594Y007946D01*
X035640Y007946D01*
X035685Y007901D01*
X035685Y007811D01*
X035640Y007766D01*
X035549Y007856D02*
X035549Y007901D01*
X035594Y008060D02*
X035414Y008241D01*
X035414Y008060D02*
X035685Y008060D01*
X035549Y008105D02*
X035685Y008241D01*
X036714Y007041D02*
X036714Y006860D01*
X036985Y006860D01*
X036985Y006746D02*
X036804Y006746D01*
X036849Y006860D02*
X036849Y006950D01*
X036985Y006746D02*
X036985Y006611D01*
X036940Y006566D01*
X036804Y006566D01*
X036985Y006451D02*
X036985Y006271D01*
X036985Y006361D02*
X036714Y006361D01*
X036804Y006271D01*
D14*
X009080Y007720D02*
X009080Y007810D01*
X009080Y007720D02*
X009050Y007690D01*
X008989Y007690D01*
X008959Y007720D01*
X008959Y007810D01*
D15*
X008959Y006910D02*
X008805Y006910D01*
X008728Y006834D01*
X008728Y006527D01*
X008805Y006450D01*
X008959Y006450D01*
X009035Y006527D01*
X009035Y006680D01*
X008882Y006680D01*
X009035Y006834D02*
X008959Y006910D01*
X009189Y006910D02*
X009189Y006450D01*
X009496Y006450D02*
X009189Y006910D01*
X009496Y006910D02*
X009496Y006450D01*
X009649Y006450D02*
X009879Y006450D01*
X009956Y006527D01*
X009956Y006834D01*
X009879Y006910D01*
X009649Y006910D01*
X009649Y006450D01*
X008959Y010450D02*
X009035Y010527D01*
X009035Y010834D01*
X008959Y010910D01*
X008805Y010910D01*
X008728Y010834D01*
X008728Y010527D01*
X008805Y010450D01*
X008959Y010450D01*
X008575Y010680D02*
X008498Y010603D01*
X008268Y010603D01*
X008268Y010450D02*
X008268Y010910D01*
X008498Y010910D01*
X008575Y010834D01*
X008575Y010680D01*
X008115Y010450D02*
X007961Y010450D01*
X008038Y010450D02*
X008038Y010910D01*
X007961Y010910D02*
X008115Y010910D01*
X007808Y010450D02*
X007501Y010450D01*
X007501Y010910D01*
X009649Y010680D02*
X009956Y010680D01*
X009803Y010527D02*
X009803Y010834D01*
D16*
X030840Y005430D02*
X030840Y004930D01*
D17*
X034840Y006680D03*
X035590Y006680D03*
X024840Y008680D03*
X024090Y008680D03*
X020840Y008680D03*
X020090Y008680D03*
X028340Y018430D03*
X028340Y020430D03*
D18*
X029840Y007180D03*
X011340Y008680D03*
D19*
X014460Y007440D02*
X014599Y007300D01*
X017219Y007300D01*
X017219Y010060D01*
X014460Y010060D01*
X014460Y007440D01*
X014619Y007600D02*
X014621Y007623D01*
X014627Y007646D01*
X014636Y007667D01*
X014649Y007687D01*
X014665Y007704D01*
X014683Y007718D01*
X014703Y007729D01*
X014725Y007737D01*
X014748Y007741D01*
X014772Y007741D01*
X014795Y007737D01*
X014817Y007729D01*
X014837Y007718D01*
X014855Y007704D01*
X014871Y007687D01*
X014884Y007667D01*
X014893Y007646D01*
X014899Y007623D01*
X014901Y007600D01*
X014899Y007577D01*
X014893Y007554D01*
X014884Y007533D01*
X014871Y007513D01*
X014855Y007496D01*
X014837Y007482D01*
X014817Y007471D01*
X014795Y007463D01*
X014772Y007459D01*
X014748Y007459D01*
X014725Y007463D01*
X014703Y007471D01*
X014683Y007482D01*
X014665Y007496D01*
X014649Y007513D01*
X014636Y007533D01*
X014627Y007554D01*
X014621Y007577D01*
X014619Y007600D01*
X014540Y020330D02*
X014540Y020430D01*
X014240Y020430D01*
X014240Y020630D01*
X014540Y020330D02*
X014890Y020330D01*
X014890Y020430D01*
X015290Y020430D01*
X015290Y020530D01*
X015890Y020530D01*
X015890Y020430D01*
X016340Y020430D01*
X016340Y020330D01*
X016640Y020330D01*
X016640Y020430D01*
X016940Y020430D01*
X016940Y020630D01*
M02*
